<svg width="50" height="50" viewBox="0 0 50 50" fill="none" xmlns="http://www.w3.org/2000/svg">
<rect width="50" height="50" rx="9.41177" fill="url(#paint0_linear_76_110)"/>
<path d="M30.4044 21.8775L19.5956 15.6444" stroke="white" stroke-width="1.17647" stroke-linecap="round" stroke-linejoin="round"/>
<path d="M35.8088 29.8039V20.1961C35.8084 19.7749 35.6972 19.3612 35.4864 18.9965C35.2756 18.6318 34.9726 18.329 34.6078 18.1184L26.201 13.3145C25.8358 13.1036 25.4216 12.9927 25 12.9927C24.5784 12.9927 24.1641 13.1036 23.799 13.3145L15.3921 18.1184C15.0274 18.329 14.7244 18.6318 14.5136 18.9965C14.3028 19.3612 14.1916 19.7749 14.1912 20.1961V29.8039C14.1916 30.2251 14.3028 30.6388 14.5136 31.0035C14.7244 31.3682 15.0274 31.671 15.3921 31.8816L23.799 36.6855C24.1641 36.8964 24.5784 37.0073 25 37.0073C25.4216 37.0073 25.8358 36.8964 26.201 36.6855L34.6078 31.8816C34.9726 31.671 35.2756 31.3682 35.4864 31.0035C35.6972 30.6388 35.8084 30.2251 35.8088 29.8039Z" stroke="white" stroke-width="1.17647" stroke-linecap="round" stroke-linejoin="round"/>
<path d="M14.5154 18.9471L25 25.012L35.4846 18.9471" stroke="white" stroke-width="1.17647" stroke-linecap="round" stroke-linejoin="round"/>
<path d="M25 37.1059V25" stroke="white" stroke-width="1.17647" stroke-linecap="round" stroke-linejoin="round"/>
<defs>
<linearGradient id="paint0_linear_76_110" x1="-10.8824" y1="-5.29412" x2="47.9412" y2="50" gradientUnits="userSpaceOnUse">
<stop stop-color="#D9D9D9"/>
<stop offset="1" stop-color="#B06D6D"/>
</linearGradient>
</defs>
</svg>
