<svg width="129" height="50" viewBox="0 0 129 50" fill="none" xmlns="http://www.w3.org/2000/svg">
<path d="M67.4121 32V17.4545H71.3326V22.9943H71.3894C71.5314 22.625 71.7398 22.2865 72.0144 21.9787C72.289 21.6662 72.6299 21.4176 73.0371 21.233C73.4443 21.0436 73.9178 20.9489 74.4576 20.9489C75.1773 20.9489 75.8614 21.1406 76.5101 21.5241C77.1635 21.9077 77.6938 22.5114 78.101 23.3352C78.513 24.1591 78.7189 25.2292 78.7189 26.5455C78.7189 27.8049 78.5224 28.849 78.1294 29.6776C77.7412 30.5062 77.2203 31.1241 76.5669 31.5312C75.9183 31.9384 75.2057 32.142 74.4292 32.142C73.9178 32.142 73.4609 32.0592 73.0584 31.8935C72.6607 31.723 72.3198 31.4934 72.0357 31.2045C71.7563 30.911 71.5409 30.5795 71.3894 30.2102H71.3042V32H67.4121ZM71.2473 26.5455C71.2473 27.0758 71.316 27.535 71.4533 27.9233C71.5953 28.3068 71.7942 28.6051 72.0499 28.8182C72.3103 29.0265 72.6204 29.1307 72.9803 29.1307C73.3401 29.1307 73.6455 29.0289 73.8965 28.8253C74.1522 28.617 74.3463 28.321 74.4789 27.9375C74.6162 27.5492 74.6848 27.0852 74.6848 26.5455C74.6848 26.0057 74.6162 25.544 74.4789 25.1605C74.3463 24.7723 74.1522 24.4763 73.8965 24.2727C73.6455 24.0644 73.3401 23.9602 72.9803 23.9602C72.6204 23.9602 72.3103 24.0644 72.0499 24.2727C71.7942 24.4763 71.5953 24.7723 71.4533 25.1605C71.316 25.544 71.2473 26.0057 71.2473 26.5455ZM83.3993 32.1705C82.7033 32.1705 82.0878 32.0568 81.5527 31.8295C81.0224 31.5975 80.6058 31.2472 80.3027 30.7784C79.9997 30.3097 79.8482 29.7131 79.8482 28.9886C79.8482 28.392 79.95 27.883 80.1536 27.4616C80.3572 27.0355 80.6413 26.6875 81.0059 26.4176C81.3704 26.1477 81.7942 25.9418 82.2772 25.7997C82.7649 25.6577 83.2904 25.5653 83.8539 25.5227C84.4647 25.4754 84.9547 25.4186 85.324 25.3523C85.6981 25.2812 85.968 25.1842 86.1337 25.0611C86.2994 24.9332 86.3823 24.7652 86.3823 24.5568V24.5284C86.3823 24.2443 86.2734 24.0265 86.0556 23.875C85.8378 23.7235 85.5584 23.6477 85.2175 23.6477C84.8435 23.6477 84.5381 23.7306 84.3013 23.8963C84.0693 24.0573 83.9296 24.3059 83.8823 24.642H80.2743C80.3217 23.9792 80.5324 23.3684 80.9064 22.8097C81.2852 22.2462 81.8368 21.7964 82.5613 21.4602C83.2857 21.1193 84.19 20.9489 85.2743 20.9489C86.0556 20.9489 86.7563 21.0412 87.3766 21.2259C87.9969 21.4058 88.5248 21.6591 88.9604 21.9858C89.396 22.3078 89.7275 22.6866 89.9547 23.1222C90.1867 23.553 90.3027 24.0218 90.3027 24.5284V32H86.638V30.4659H86.5527C86.3349 30.8731 86.0698 31.2022 85.7573 31.4531C85.4495 31.7041 85.0968 31.8864 84.699 32C84.306 32.1136 83.8728 32.1705 83.3993 32.1705ZM84.6777 29.6989C84.976 29.6989 85.2554 29.6373 85.5158 29.5142C85.781 29.3911 85.9964 29.2135 86.1621 28.9815C86.3278 28.7495 86.4107 28.4678 86.4107 28.1364V27.2273C86.3065 27.2699 86.1953 27.3101 86.0769 27.348C85.9632 27.3859 85.8401 27.4214 85.7076 27.4545C85.5797 27.4877 85.4424 27.5185 85.2956 27.5469C85.1536 27.5753 85.0044 27.6013 84.8482 27.625C84.5452 27.6723 84.2966 27.7505 84.1025 27.8594C83.9131 27.9635 83.771 28.0938 83.6763 28.25C83.5864 28.4015 83.5414 28.572 83.5414 28.7614C83.5414 29.0644 83.6479 29.2964 83.861 29.4574C84.074 29.6184 84.3463 29.6989 84.6777 29.6989ZM92.2896 32V29.8409L97.0623 24.1307V24.0739H92.46V21.0909H101.693V23.4773L97.3464 28.9602V29.017H101.863V32H92.2896ZM107.071 32.1705C106.375 32.1705 105.76 32.0568 105.225 31.8295C104.694 31.5975 104.278 31.2472 103.975 30.7784C103.672 30.3097 103.52 29.7131 103.52 28.9886C103.52 28.392 103.622 27.883 103.825 27.4616C104.029 27.0355 104.313 26.6875 104.678 26.4176C105.042 26.1477 105.466 25.9418 105.949 25.7997C106.437 25.6577 106.962 25.5653 107.526 25.5227C108.137 25.4754 108.627 25.4186 108.996 25.3523C109.37 25.2812 109.64 25.1842 109.806 25.0611C109.971 24.9332 110.054 24.7652 110.054 24.5568V24.5284C110.054 24.2443 109.945 24.0265 109.727 23.875C109.51 23.7235 109.23 23.6477 108.889 23.6477C108.515 23.6477 108.21 23.7306 107.973 23.8963C107.741 24.0573 107.602 24.3059 107.554 24.642H103.946C103.994 23.9792 104.204 23.3684 104.578 22.8097C104.957 22.2462 105.509 21.7964 106.233 21.4602C106.958 21.1193 107.862 20.9489 108.946 20.9489C109.727 20.9489 110.428 21.0412 111.048 21.2259C111.669 21.4058 112.197 21.6591 112.632 21.9858C113.068 22.3078 113.399 22.6866 113.627 23.1222C113.859 23.553 113.975 24.0218 113.975 24.5284V32H110.31V30.4659H110.225C110.007 30.8731 109.742 31.2022 109.429 31.4531C109.121 31.7041 108.769 31.8864 108.371 32C107.978 32.1136 107.545 32.1705 107.071 32.1705ZM108.35 29.6989C108.648 29.6989 108.927 29.6373 109.188 29.5142C109.453 29.3911 109.668 29.2135 109.834 28.9815C110 28.7495 110.083 28.4678 110.083 28.1364V27.2273C109.978 27.2699 109.867 27.3101 109.749 27.348C109.635 27.3859 109.512 27.4214 109.379 27.4545C109.252 27.4877 109.114 27.5185 108.968 27.5469C108.825 27.5753 108.676 27.6013 108.52 27.625C108.217 27.6723 107.968 27.7505 107.774 27.8594C107.585 27.9635 107.443 28.0938 107.348 28.25C107.258 28.4015 107.213 28.572 107.213 28.7614C107.213 29.0644 107.32 29.2964 107.533 29.4574C107.746 29.6184 108.018 29.6989 108.35 29.6989ZM115.848 32V21.0909H119.655V23.1648H119.768C119.967 22.3977 120.282 21.8366 120.713 21.4815C121.148 21.1264 121.657 20.9489 122.24 20.9489C122.41 20.9489 122.578 20.9631 122.744 20.9915C122.915 21.0152 123.078 21.0507 123.234 21.098V24.4432C123.04 24.3769 122.801 24.3272 122.517 24.294C122.233 24.2609 121.989 24.2443 121.785 24.2443C121.402 24.2443 121.056 24.3319 120.748 24.5071C120.445 24.6776 120.206 24.919 120.031 25.2315C119.856 25.5393 119.768 25.9015 119.768 26.3182V32H115.848ZM125.4 32.2273C124.851 32.2273 124.38 32.0355 123.987 31.652C123.599 31.2637 123.407 30.7926 123.412 30.2386C123.407 29.6989 123.599 29.2372 123.987 28.8537C124.38 28.4702 124.851 28.2784 125.4 28.2784C125.921 28.2784 126.381 28.4702 126.778 28.8537C127.181 29.2372 127.384 29.6989 127.389 30.2386C127.384 30.608 127.287 30.9441 127.098 31.2472C126.913 31.5455 126.672 31.7846 126.373 31.9645C126.075 32.1397 125.751 32.2273 125.4 32.2273Z" fill="#B06D6D"/>
<rect width="50" height="50" rx="9.41177" fill="url(#paint0_linear_21_2245)"/>
<path d="M30.4044 21.8776L19.5956 15.6445" stroke="white" stroke-width="1.17647" stroke-linecap="round" stroke-linejoin="round"/>
<path d="M35.8088 29.8039V20.1961C35.8084 19.7749 35.6972 19.3612 35.4864 18.9965C35.2756 18.6318 34.9726 18.329 34.6078 18.1184L26.201 13.3145C25.8358 13.1037 25.4216 12.9927 25 12.9927C24.5784 12.9927 24.1641 13.1037 23.799 13.3145L15.3921 18.1184C15.0274 18.329 14.7244 18.6318 14.5136 18.9965C14.3028 19.3612 14.1916 19.7749 14.1912 20.1961V29.8039C14.1916 30.2252 14.3028 30.6388 14.5136 31.0035C14.7244 31.3682 15.0274 31.671 15.3921 31.8816L23.799 36.6856C24.1641 36.8964 24.5784 37.0074 25 37.0074C25.4216 37.0074 25.8358 36.8964 26.201 36.6856L34.6078 31.8816C34.9726 31.671 35.2756 31.3682 35.4864 31.0035C35.6972 30.6388 35.8084 30.2252 35.8088 29.8039Z" stroke="white" stroke-width="1.17647" stroke-linecap="round" stroke-linejoin="round"/>
<path d="M14.5154 18.9473L25 25.0122L35.4846 18.9473" stroke="white" stroke-width="1.17647" stroke-linecap="round" stroke-linejoin="round"/>
<path d="M25 37.1059V25" stroke="white" stroke-width="1.17647" stroke-linecap="round" stroke-linejoin="round"/>
<defs>
<linearGradient id="paint0_linear_21_2245" x1="-10.8824" y1="-5.29412" x2="47.9412" y2="50" gradientUnits="userSpaceOnUse">
<stop stop-color="#D9D9D9"/>
<stop offset="1" stop-color="#B06D6D"/>
</linearGradient>
</defs>
</svg>
